<?xml version="1.0" encoding="utf-8"?>
<!-- Generator: Adobe Illustrator 24.2.1, SVG Export Plug-In . SVG Version: 6.00 Build 0)  -->
<svg version="1.1" id="Layer_1" xmlns="http://www.w3.org/2000/svg" xmlns:xlink="http://www.w3.org/1999/xlink" x="0px" y="0px"
	 viewBox="0 0 264.8 78" style="enable-background:new 0 0 264.8 78;" xml:space="preserve">
<style type="text/css">
	.st0{fill-rule:evenodd;clip-rule:evenodd;fill:#000000;}
</style>
<g>
	<path class="st0" d="M105.5,51.1L101,63.8h9.1l-4.5-12.8H105.5z M108.6,45.4L120,75.7h-5.8l-2.7-7.5H99.6L97,75.7h-5.7l11.4-30.3
		H108.6z"/>
	<path class="st0" d="M122.6,54H140v2.1l-11.4,15.6H140v4.1h-18.2v-2.4l11.2-15.2h-10.4V54z"/>
	<path class="st0" d="M162.6,54v21.7h-5.2v-2.9h-0.1c-0.7,1-1.6,1.8-2.7,2.3c-1.1,0.6-2.4,0.8-3.8,0.8c-2.5,0-4.4-0.7-5.8-2.1
		c-1.3-1.4-2-3.7-2-6.7V54h5.2v12.6c0,1.8,0.4,3.2,1.1,4.1c0.7,0.9,1.8,1.4,3.3,1.4c1.5,0,2.6-0.5,3.5-1.5c0.9-1,1.3-2.4,1.3-4V54
		H162.6z"/>
	<path class="st0" d="M177.2,53.7c0.4,0,0.8,0,1.1,0.1c0.3,0.1,0.6,0.1,0.8,0.2v5.2c-0.3-0.2-0.7-0.4-1.2-0.6
		c-0.5-0.2-1.1-0.3-1.9-0.3c-1.3,0-2.3,0.5-3.2,1.6c-0.9,1.1-1.3,2.7-1.3,4.9v11h-5.1V54h5.1v3.4h0.1c0.5-1.2,1.2-2.1,2.1-2.8
		C174.8,54,175.9,53.7,177.2,53.7z"/>
	<path class="st0" d="M194.4,62.7c0-1.7-0.4-3-1.2-3.9c-0.8-0.9-1.9-1.3-3.3-1.3c-1.2,0-2.3,0.4-3.3,1.3s-1.6,2.2-1.9,3.9H194.4z
		 M197.7,70.3v4.2c-0.8,0.5-2,1-3.3,1.3c-1.4,0.3-2.8,0.5-4.4,0.5c-3.3,0-5.9-1-7.7-2.9c-1.8-2-2.8-4.7-2.8-8.2c0-3.4,1-6.1,2.9-8.3
		c2-2.2,4.5-3.3,7.5-3.3c3,0,5.3,0.9,7,2.8c1.7,1.8,2.5,4.4,2.5,7.6v2.5h-14.9c0.2,2.2,0.9,3.7,2.1,4.6c1.2,0.9,2.7,1.3,4.6,1.3
		c1.2,0,2.4-0.2,3.5-0.6C195.8,71.4,196.8,70.9,197.7,70.3z"/>
</g>
<path class="st0" d="M254.5,16.2h-7.6v17.5h-5.2V16.2H238V12h3.6V9c0-2.3,0.7-4.2,2.2-5.6c1.5-1.5,3.4-2.2,5.7-2.2
	c0.6,0,1.2,0,1.6,0.1s0.9,0.2,1.3,0.3V6c-0.2-0.1-0.5-0.2-0.9-0.4c-0.4-0.1-0.9-0.2-1.5-0.2c-1.1,0-1.9,0.3-2.5,1
	c-0.6,0.7-0.9,1.7-0.9,3V12h7.6V7.1l5.1-1.6V12h5.2v4.2h-5.2v10.2c0,1.3,0.2,2.3,0.7,2.8c0.5,0.5,1.2,0.8,2.3,0.8
	c0.3,0,0.7-0.1,1.1-0.2c0.4-0.1,0.8-0.3,1.1-0.5v4.2c-0.3,0.2-0.9,0.4-1.6,0.5c-0.8,0.2-1.5,0.2-2.2,0.2c-2.2,0-3.8-0.6-4.8-1.7
	c-1.1-1.1-1.6-2.9-1.6-5.2V16.2z M220.5,23c0,2.3,0.5,4,1.5,5.2c1,1.2,2.5,1.8,4.4,1.8c1.9,0,3.3-0.6,4.2-1.8c1-1.2,1.5-3,1.5-5.3
	c0-2.3-0.5-4.1-1.5-5.3c-1-1.2-2.4-1.8-4.2-1.8c-1.9,0-3.3,0.6-4.4,1.9C221,18.9,220.5,20.7,220.5,23z M215.2,23.2
	c0-3.6,1-6.4,3-8.5c2-2.1,4.8-3.1,8.5-3.1c3.4,0,6,1,8,3c1.9,2,2.9,4.8,2.9,8.2c0,3.5-1,6.3-3,8.4c-2,2.1-4.8,3.1-8.3,3.1
	c-3.4,0-6-1-8-3C216.2,29.3,215.2,26.6,215.2,23.2z M203.7,17.7c0,0.7,0.2,1.3,0.7,1.7c0.5,0.4,1.5,0.9,3.1,1.6
	c2,0.8,3.5,1.7,4.3,2.8c0.8,1,1.2,2.3,1.2,3.7c0,2-0.8,3.7-2.4,4.9c-1.6,1.2-3.7,1.9-6.4,1.9c-0.9,0-1.9-0.1-3-0.3
	c-1.1-0.2-2-0.5-2.8-0.8v-5c0.9,0.6,1.9,1.2,3,1.5c1.1,0.4,2,0.6,2.9,0.6c1.2,0,2-0.2,2.6-0.5c0.5-0.3,0.8-0.9,0.8-1.6
	c0-0.7-0.3-1.3-0.9-1.8c-0.6-0.5-1.7-1-3.2-1.7c-1.9-0.8-3.2-1.7-4-2.7s-1.2-2.2-1.2-3.8c0-2,0.8-3.6,2.3-4.8
	c1.6-1.3,3.6-1.9,6.1-1.9c0.8,0,1.6,0.1,2.6,0.3c0.9,0.2,1.7,0.4,2.4,0.7v4.9c-0.7-0.5-1.5-0.8-2.4-1.2c-0.9-0.3-1.8-0.5-2.7-0.5
	c-1,0-1.7,0.2-2.3,0.6C203.9,16.5,203.7,17.1,203.7,17.7z M179.1,23c0,2.3,0.5,4,1.5,5.2c1,1.2,2.5,1.8,4.4,1.8
	c1.9,0,3.3-0.6,4.2-1.8c1-1.2,1.5-3,1.5-5.3c0-2.3-0.5-4.1-1.5-5.3c-1-1.2-2.4-1.8-4.2-1.8c-1.9,0-3.3,0.6-4.4,1.9
	C179.6,18.9,179.1,20.7,179.1,23z M173.8,23.2c0-3.6,1-6.4,3-8.5c2-2.1,4.8-3.1,8.5-3.1c3.4,0,6,1,8,3c1.9,2,2.9,4.8,2.9,8.2
	c0,3.5-1,6.3-3,8.4c-2,2.1-4.8,3.1-8.3,3.1c-3.4,0-6-1-8-3C174.7,29.3,173.8,26.6,173.8,23.2z M171.6,11.7c0.4,0,0.8,0,1.1,0.1
	c0.3,0.1,0.6,0.1,0.8,0.2v5.2c-0.3-0.2-0.7-0.4-1.2-0.6c-0.5-0.2-1.1-0.3-1.9-0.3c-1.3,0-2.3,0.5-3.2,1.6c-0.9,1.1-1.3,2.7-1.3,4.9
	v11h-5.1V12h5.1v3.4h0.1c0.5-1.2,1.2-2.1,2.1-2.8C169.1,12,170.2,11.7,171.6,11.7z M151.9,30c0.8,0,1.6-0.2,2.5-0.5
	c0.9-0.4,1.8-0.8,2.5-1.4v4.8c-0.8,0.5-1.7,0.8-2.8,1.1c-1,0.2-2.2,0.4-3.4,0.4c-3.2,0-5.8-1-7.8-3c-2-2-3-4.6-3-7.7
	c0-3.5,1-6.4,3.1-8.6c2-2.3,4.9-3.4,8.7-3.4c1,0,1.9,0.1,2.9,0.4c1,0.2,1.8,0.5,2.3,0.9v4.9c-0.8-0.6-1.6-1-2.4-1.3
	c-0.8-0.3-1.7-0.5-2.5-0.5c-2,0-3.6,0.7-4.9,2c-1.2,1.3-1.9,3.1-1.9,5.3c0,2.2,0.6,3.9,1.8,5.1C148.3,29.4,149.9,30,151.9,30z
	 M131.3,33.7h5.1V12h-5.1V33.7z M130.8,5.7c0-0.8,0.3-1.6,0.9-2.1c0.6-0.6,1.3-0.9,2.2-0.9c0.9,0,1.6,0.3,2.2,0.9
	c0.6,0.6,0.9,1.3,0.9,2.1c0,0.8-0.3,1.5-0.9,2.1c-0.6,0.6-1.3,0.8-2.2,0.8c-0.9,0-1.6-0.3-2.2-0.9C131.1,7.3,130.8,6.6,130.8,5.7z
	 M126.4,3.4v30.3h-5.3V10H121l-9.4,23.8h-3.5L98.5,10h-0.1v23.8h-4.9V3.4h7.5l8.7,22.5h0.1l9.2-22.5H126.4z"/>
<path class="st0" d="M0,37.2h34.2V3H0V37.2z"/>
<path class="st0" d="M37.8,37.2H72V3H37.8V37.2z"/>
<path class="st0" d="M0,75h34.2V40.8H0V75z"/>
<path class="st0" d="M37.8,75H72V40.8H37.8V75z"/>
</svg>
