<svg width="56" height="32" viewBox="0 0 56 32" fill="none" xmlns="http://www.w3.org/2000/svg">
<path opacity="0.57" d="M18.1118 6.60136C18.1163 6.51498 18.1613 6.45133 18.2018 6.38313C18.5212 5.81483 18.8451 5.24654 19.1645 4.67824C19.5829 3.94172 20.0013 3.20066 20.4197 2.46414C20.7301 1.91403 21.0405 1.36846 21.3554 0.822897C21.5803 0.436454 21.9087 0.177309 22.3406 0.0636495C22.5161 0.0181856 22.696 0 22.876 0C23.5733 0 24.2706 0 24.9679 0C27.6806 0 30.3933 0 33.106 0C33.295 0 33.4794 0.0136392 33.6639 0.0591031C34.1048 0.172763 34.4377 0.436454 34.6626 0.83199C34.937 1.30936 35.2069 1.79128 35.4814 2.26865C35.8503 2.91878 36.2192 3.56437 36.5926 4.2145C36.6195 4.25997 36.651 4.30089 36.651 4.3509C36.5566 4.35544 36.4621 4.35999 36.3721 4.35999C34.919 4.35999 33.4659 4.35999 32.0129 4.35999C31.9274 4.35999 31.8419 4.3418 31.7564 4.38272C31.671 4.37817 31.5855 4.37363 31.5 4.37363C29.1832 4.37363 26.8663 4.37363 24.5495 4.37363C24.5045 4.37363 24.464 4.37817 24.419 4.37363C24.32 4.36454 24.2616 4.40545 24.2121 4.49183C23.8972 5.05559 23.5733 5.61479 23.2539 6.174C22.9479 6.71047 22.642 7.2424 22.3406 7.77888C21.9807 8.41082 21.6253 9.03823 21.2654 9.67017C21.0315 10.0793 20.7976 10.4885 20.5636 10.8977C20.5231 10.8386 20.4826 10.7795 20.4467 10.7158C19.9023 9.7611 19.358 8.80636 18.8136 7.84707C18.5797 7.43335 18.3502 7.01963 18.1118 6.60136Z" fill="#000000"/>
<path opacity="0.65" d="M31.7608 4.38729C31.8418 4.34638 31.9318 4.36456 32.0172 4.36456C33.4703 4.36456 34.9234 4.36456 36.3765 4.36456C36.471 4.36456 36.5654 4.36002 36.6554 4.35547C36.8174 4.58733 36.9433 4.84193 37.0828 5.08744C38.0185 6.73323 38.9498 8.37902 39.8855 10.0248C39.98 10.1885 40.0564 10.3613 40.0969 10.5477C40.1959 10.9614 40.1329 11.3569 39.926 11.7252C39.719 12.0934 39.5121 12.4571 39.3052 12.8208C37.7936 15.4805 36.2865 18.1401 34.7749 20.8043C34.73 20.8861 34.685 20.968 34.631 21.0498C34.3071 21.5408 33.8527 21.8 33.2724 21.8091C32.5301 21.8182 31.7923 21.8136 31.05 21.8136C30.5372 21.8136 30.0288 21.8136 29.5159 21.8136C29.4305 21.8136 29.345 21.8045 29.2595 21.8C29.417 21.5226 29.5744 21.2453 29.7319 20.968C29.9253 20.627 30.1188 20.2906 30.3122 19.9496C30.4967 19.6223 30.6856 19.2949 30.8701 18.9676C31.0725 18.6084 31.2839 18.2538 31.4819 17.8901C31.5584 17.7537 31.6708 17.6309 31.6978 17.4673C31.7923 17.4036 31.8283 17.2945 31.8823 17.2036C32.3411 16.3989 32.8 15.5896 33.2589 14.7849C33.9607 13.5574 34.658 12.3298 35.3598 11.0978C35.4633 10.9114 35.4633 10.9114 35.3598 10.7295C35.0494 10.1794 34.7345 9.63383 34.424 9.08372C33.7852 7.96076 33.1464 6.84234 32.5076 5.71939C32.2557 5.27384 32.0082 4.82829 31.7608 4.38729Z" fill="#000000"/>
<path opacity="0.49" d="M31.6979 17.4627C31.6709 17.6264 31.5584 17.7492 31.4819 17.8856C31.284 18.2447 31.0771 18.6039 30.8701 18.963C30.6857 19.2904 30.4967 19.6177 30.3123 19.9451C30.1188 20.286 29.9254 20.6225 29.7319 20.9635C29.5745 21.2408 29.417 21.5181 29.2596 21.7954C29.1966 21.8 29.1291 21.8091 29.0661 21.8091C26.9742 21.8091 24.8778 21.8091 22.7859 21.8091C22.2821 21.8091 21.8637 21.6227 21.5263 21.2453C21.4453 21.1544 21.3778 21.0498 21.3193 20.9407C20.9055 20.2088 20.4871 19.4768 20.0732 18.7448C18.9755 16.8081 17.8778 14.8758 16.7801 12.9391C16.5552 12.5435 16.3303 12.1435 16.1053 11.7479C15.8039 11.2115 15.7994 10.6659 16.0873 10.1249C16.2673 9.78388 16.4652 9.45654 16.6542 9.12011C17.095 8.34268 17.5314 7.56979 17.9723 6.79236C18.0128 6.72416 18.0353 6.64233 18.1162 6.60596C18.3502 7.01968 18.5841 7.43795 18.818 7.85167C19.3624 8.80641 19.9067 9.76115 20.4511 10.7204C20.4871 10.7841 20.5276 10.8432 20.5681 10.9023C20.622 11.0705 20.7255 11.2115 20.811 11.3615C21.3238 12.2708 21.8457 13.1755 22.363 14.0848C22.9614 15.1304 23.5552 16.1761 24.149 17.2218C24.302 17.4946 24.2615 17.4536 24.5494 17.4536C26.8393 17.4536 29.1291 17.4536 31.4145 17.4536C31.5134 17.4491 31.6034 17.4582 31.6979 17.4627Z" fill="#000000"/>
<path d="M3.48194 28.0103C3.80585 28.0103 4.12976 28.0103 4.45367 28.0103C4.55714 28.0103 4.58413 28.033 4.59313 28.133C4.74158 29.5515 3.86433 30.4381 2.82513 30.5835C1.80392 30.729 0.980657 30.379 0.395824 29.5197C-0.2205 28.615 -0.103534 27.4011 0.652251 26.61C1.10662 26.1326 1.66446 25.8689 2.31678 25.8417C2.9331 25.8144 3.47744 26.0053 3.94081 26.4236C3.94981 26.4327 3.96331 26.4418 3.9723 26.4554C4.00379 26.4873 4.00379 26.5191 3.9723 26.5509C3.85084 26.6737 3.72937 26.801 3.60791 26.9192C3.57642 26.951 3.54492 26.9419 3.51343 26.9146C3.48194 26.8873 3.44595 26.8601 3.40996 26.8328C2.60469 26.2008 1.1921 26.4418 0.796209 27.6875C0.481299 28.6741 1.05264 29.6561 1.94788 29.8925C2.51922 30.0425 3.04557 29.9516 3.50893 29.5606C3.75187 29.356 3.87333 29.0787 3.92282 28.7695C3.93631 28.6877 3.91382 28.665 3.82834 28.665C3.44595 28.665 3.06356 28.665 2.68567 28.665C2.62269 28.665 2.55521 28.665 2.49223 28.665C2.44274 28.665 2.40675 28.6422 2.40675 28.5877C2.40675 28.4195 2.40675 28.2512 2.40675 28.0876C2.40675 28.033 2.44274 28.0103 2.49223 28.0103C2.71716 28.0103 2.9376 28.0103 3.16253 28.0103C3.266 28.0103 3.37397 28.0103 3.48194 28.0103Z" fill="#000000"/>
<path d="M13.757 27.8466C13.7885 27.6329 13.7885 27.6329 14.009 27.6329C14.1169 27.6329 14.2249 27.6329 14.3329 27.6374C14.3824 27.6374 14.4138 27.6647 14.4138 27.7193C14.4138 27.7647 14.4138 27.8057 14.4138 27.8511C14.4138 28.7013 14.4138 29.5515 14.4138 30.4017C14.4138 30.5608 14.4004 30.7199 14.3689 30.879C14.2474 31.4837 13.8425 31.9156 13.1767 31.9884C12.6773 32.0429 12.2545 31.9065 11.9036 31.5383C11.8001 31.4291 11.7146 31.3018 11.6471 31.1609C11.6201 31.1109 11.6336 31.0791 11.6876 31.0563C11.8316 30.9927 11.98 30.9336 12.124 30.8745C12.1735 30.8518 12.205 30.8654 12.232 30.9109C12.2635 30.9654 12.2995 31.0245 12.3399 31.0745C12.6459 31.4792 13.1812 31.4382 13.4466 31.2564C13.6491 31.12 13.7255 30.9154 13.7615 30.6835C13.7705 30.6335 13.775 30.5835 13.7705 30.5335C13.766 30.4653 13.811 30.3698 13.7345 30.338C13.6806 30.3153 13.6311 30.4017 13.5771 30.4335C13.2577 30.6426 12.9158 30.6744 12.5649 30.5608C11.7416 30.3016 11.4357 29.5015 11.5032 28.9104C11.5662 28.374 11.9666 27.7647 12.6099 27.592C13.0013 27.4874 13.3657 27.542 13.6851 27.8102C13.7031 27.8239 13.721 27.8329 13.739 27.8466C13.739 27.8511 13.748 27.8466 13.757 27.8466ZM13.8155 29.1059C13.8155 28.8468 13.766 28.6831 13.6536 28.5058C13.4016 28.1194 12.8708 28.0193 12.4884 28.3512C12.0835 28.7013 12.0565 29.3696 12.4254 29.7561C12.8078 30.1562 13.4376 30.0743 13.7031 29.5833C13.784 29.4287 13.8245 29.2605 13.8155 29.1059Z" fill="#000000"/>
<path d="M52.239 28.0332C52.3199 27.9513 52.3649 27.9059 52.4144 27.8649C52.7023 27.6194 53.0217 27.5194 53.3951 27.6058C53.6021 27.6558 53.7685 27.7558 53.8945 27.924C53.926 27.965 53.953 28.0059 53.9845 28.0468C53.998 28.065 54.025 28.0695 54.043 28.0513C54.0789 28.015 54.1104 27.9786 54.1464 27.9422C54.4658 27.6149 54.8527 27.5058 55.2936 27.6149C55.5275 27.674 55.7075 27.8104 55.8289 28.0241C55.9504 28.2377 55.9999 28.4696 55.9999 28.7151C55.9999 29.1243 55.9999 29.5289 55.9999 29.9381C55.9999 30.1063 55.9999 30.2745 55.9999 30.4382C55.9999 30.5064 55.9774 30.5246 55.9054 30.5291C55.8964 30.5291 55.8919 30.5291 55.8829 30.5291C55.3881 30.5155 55.4735 30.6201 55.4645 30.129C55.46 29.7199 55.4645 29.3152 55.4645 28.9061C55.4645 28.7879 55.4555 28.6742 55.4376 28.5605C55.3881 28.2423 55.2081 28.0923 54.8932 28.0741C54.6683 28.065 54.4838 28.1468 54.3444 28.3196C54.2094 28.4833 54.1374 28.6697 54.1329 28.8788C54.1284 29.0606 54.1284 29.2425 54.1284 29.4244C54.1284 29.7426 54.1284 30.0654 54.1284 30.3836C54.1284 30.5155 54.1149 30.5246 53.998 30.5246C53.89 30.5246 53.782 30.5246 53.6741 30.5246C53.6246 30.5246 53.5931 30.4973 53.5886 30.4473C53.5841 30.3882 53.5886 30.3291 53.5886 30.2745C53.5886 29.8017 53.5886 29.3289 53.5886 28.8561C53.5886 28.7151 53.5796 28.5787 53.5391 28.4469C53.4671 28.2332 53.3232 28.1104 53.1027 28.0832C52.7878 28.0423 52.5539 28.1605 52.3919 28.4332C52.284 28.6151 52.248 28.8106 52.248 29.0197C52.248 29.4334 52.248 29.8472 52.248 30.2654C52.248 30.5655 52.275 30.5337 51.9825 30.5337C51.6991 30.5337 51.7216 30.561 51.7216 30.2836C51.7216 29.4971 51.7216 28.7106 51.7216 27.9286C51.7216 27.8786 51.7216 27.8286 51.7216 27.774C51.7261 27.6922 51.7441 27.674 51.8296 27.674C51.9286 27.6694 52.032 27.6694 52.131 27.674C52.212 27.674 52.2255 27.6967 52.23 27.7831C52.2345 27.8468 52.239 27.9195 52.239 28.0332Z" fill="#000000"/>
<path d="M33.6278 30.197C33.5603 30.2061 33.5423 30.2516 33.5108 30.2789C33.1464 30.6289 32.6246 30.7153 32.1702 30.5107C31.8328 30.3561 31.5944 30.1015 31.4549 29.756C31.221 29.1741 31.2795 28.6149 31.6483 28.1057C31.8688 27.7965 32.1837 27.6192 32.5571 27.5828C32.899 27.551 33.2139 27.6465 33.4748 27.8829C33.5108 27.9147 33.5468 27.9556 33.5873 27.9875C33.6053 28.0011 33.6278 27.992 33.6323 27.9693C33.6368 27.9329 33.6368 27.8965 33.6368 27.8602C33.6368 27.4146 33.6323 26.9736 33.6323 26.5281C33.6323 26.5008 33.6323 26.469 33.6323 26.4417C33.6323 26.3917 33.6593 26.3599 33.7088 26.3599C33.8302 26.3599 33.9517 26.3599 34.0777 26.3599C34.1316 26.3599 34.1541 26.3917 34.1586 26.4417C34.1631 26.5008 34.1586 26.5599 34.1586 26.6145C34.1586 27.8374 34.1586 29.0559 34.1586 30.2789C34.1586 30.3243 34.1586 30.3652 34.1586 30.4107C34.1541 30.5198 34.1451 30.5335 34.0282 30.5335C33.9337 30.5335 33.8392 30.5335 33.7492 30.5335C33.6683 30.5335 33.6548 30.5153 33.6503 30.4243C33.6413 30.3516 33.6593 30.2789 33.6278 30.197ZM33.6413 29.1195C33.6413 28.8922 33.6233 28.774 33.5513 28.6103C33.4028 28.2784 33.1464 28.0875 32.782 28.0739C32.4131 28.0602 32.1432 28.2375 31.9813 28.5603C31.8058 28.9104 31.8058 29.2786 31.9813 29.6287C32.1342 29.9424 32.3951 30.1152 32.737 30.1197C33.0789 30.1243 33.3444 29.9652 33.5153 29.6605C33.6143 29.4923 33.6458 29.3014 33.6413 29.1195Z" fill="#000000"/>
<path d="M11.2153 29.0924C11.2243 29.9153 10.5765 30.62 9.69023 30.6245C8.91645 30.6291 8.15617 30.0517 8.16066 29.0742C8.16066 28.1922 8.82198 27.5466 9.68573 27.5466C10.653 27.5466 11.2378 28.3104 11.2153 29.0924ZM8.83547 29.1151C8.82647 29.2788 8.88496 29.4561 8.98393 29.6198C9.26285 30.0653 9.87018 30.1426 10.2526 29.788C10.6215 29.447 10.5945 28.8378 10.383 28.5286C10.0951 28.1058 9.47429 28.0104 9.0919 28.4104C8.91645 28.5968 8.83547 28.8242 8.83547 29.1151Z" fill="#000000"/>
<path d="M7.89059 29.0787C7.90408 29.9334 7.22928 30.6245 6.35653 30.6199C5.50177 30.6154 4.83146 29.9425 4.83596 29.0833C4.84046 28.2104 5.48827 27.5329 6.37452 27.5466C7.41372 27.5557 7.90858 28.3968 7.89059 29.0787ZM5.50627 29.1105C5.49727 29.2333 5.53326 29.3788 5.60074 29.5197C5.7402 29.8107 5.97413 29.9789 6.28904 30.0107C6.60845 30.0426 6.86038 29.9062 7.04933 29.647C7.26976 29.3379 7.27426 28.8059 7.02233 28.4831C6.72992 28.1103 6.17208 28.0331 5.80318 28.3786C5.60074 28.565 5.50627 28.8014 5.50627 29.1105Z" fill="#000000"/>
<path d="M18.1254 29.5879C18.2828 29.6925 18.4178 29.7834 18.5572 29.8789C18.6247 29.9244 18.6292 29.9607 18.5797 30.0244C18.3998 30.2608 18.1703 30.4336 17.8914 30.529C16.8567 30.8927 15.759 30.1244 15.8715 28.9151C15.9075 28.5241 16.0559 28.1876 16.3394 27.9149C16.8657 27.4193 17.8329 27.342 18.3863 28.1149C18.4898 28.2558 18.5662 28.4104 18.6247 28.5786C18.6652 28.6923 18.6607 28.7014 18.5617 28.7423C18.4043 28.8105 18.2423 28.8787 18.0849 28.9423C17.662 29.1196 17.2346 29.297 16.8117 29.4743C16.7802 29.4879 16.7442 29.5015 16.7128 29.5152C16.6633 29.5425 16.6588 29.5652 16.6903 29.6198C16.8792 29.9425 17.2166 30.0426 17.5225 29.9926C17.7295 29.9607 17.9004 29.8516 18.0354 29.697C18.0579 29.6698 18.0849 29.6379 18.1254 29.5879ZM17.3786 28.1422C17.2031 28.1376 17.0862 28.174 16.9782 28.2331C16.7173 28.374 16.5733 28.5968 16.5328 28.8878C16.5193 29.0014 16.5463 29.0242 16.6453 28.9833C16.8072 28.9196 16.9647 28.8514 17.1221 28.7832C17.3426 28.6923 17.5585 28.6014 17.779 28.5059C17.8734 28.465 17.8779 28.4286 17.8104 28.3468C17.68 28.2013 17.5135 28.1513 17.3786 28.1422Z" fill="#000000"/>
<path d="M19.9788 28.1921C19.9923 27.6648 20.2803 27.0374 20.9236 26.6191C21.6344 26.1599 22.3812 26.1281 23.1369 26.5282C23.3034 26.6145 23.4473 26.7373 23.5778 26.8782C23.6093 26.9146 23.6273 26.951 23.5868 26.9919C23.4968 27.0828 23.4024 27.1737 23.3079 27.2647C23.2854 27.2874 23.2539 27.2874 23.2314 27.2647C23.2044 27.2419 23.1819 27.2147 23.1549 27.1874C22.93 26.9555 22.6511 26.8237 22.3362 26.7873C21.8953 26.7373 21.4904 26.8328 21.135 27.1056C20.8156 27.3511 20.6312 27.6784 20.5592 28.0739C20.5052 28.3604 20.5142 28.6513 20.5907 28.9377C20.7661 29.6061 21.324 30.0562 22.0213 30.0971C22.4981 30.1244 22.912 29.9652 23.2584 29.6288C23.4024 29.4924 23.3934 29.497 23.5283 29.6333C23.5823 29.6879 23.6408 29.747 23.6948 29.8016C23.7533 29.8652 23.7533 29.8834 23.6948 29.947C23.4474 30.2107 23.1549 30.4108 22.8085 30.5063C21.9493 30.7563 21.18 30.5926 20.5502 29.9334C20.1453 29.5242 19.9698 29.0059 19.9788 28.1921Z" fill="#000000"/>
<path d="M35.5984 28.4196C35.5984 27.8285 35.5984 27.2421 35.5984 26.651C35.5984 26.601 35.5984 26.551 35.5984 26.4965C35.6029 26.3601 35.6074 26.351 35.7468 26.351C36.1697 26.351 36.5971 26.3419 37.02 26.351C37.4384 26.3601 37.7893 26.5192 38.0502 26.8602C38.4821 27.4285 38.3291 28.2559 37.7263 28.6287C37.5148 28.7606 37.2854 28.8333 37.0335 28.8333C36.804 28.8333 36.5746 28.8333 36.3407 28.8333C36.2912 28.8333 36.2417 28.8333 36.1922 28.8378C36.1607 28.8424 36.1427 28.8651 36.1382 28.8969C36.1337 28.956 36.1337 29.0152 36.1337 29.0697C36.1337 29.4789 36.1337 29.8835 36.1337 30.2927C36.1337 30.3518 36.1337 30.4109 36.1292 30.4655C36.1247 30.4973 36.1022 30.52 36.0708 30.52C35.9358 30.52 35.7963 30.5246 35.6614 30.52C35.6299 30.52 35.6074 30.4927 35.6074 30.4655C35.6029 30.4018 35.5984 30.3336 35.5984 30.27C35.5984 29.6562 35.5984 29.0379 35.5984 28.4196ZM36.1337 27.5921C36.1337 27.7967 36.1337 27.9968 36.1337 28.2013C36.1337 28.3014 36.1517 28.3196 36.2462 28.3196C36.5251 28.3196 36.8085 28.3196 37.0875 28.3196C37.1504 28.3196 37.2134 28.3059 37.2764 28.2832C37.6003 28.1604 37.7893 27.8376 37.7398 27.4876C37.6948 27.1602 37.4114 26.8965 37.074 26.8829C36.795 26.8693 36.5116 26.8783 36.2327 26.8783C36.1517 26.8783 36.1337 26.8965 36.1337 26.9875C36.1337 27.183 36.1337 27.3875 36.1337 27.5921Z" fill="#000000"/>
<path d="M41.6626 30.1699C41.5906 30.179 41.5771 30.2153 41.5546 30.2426C41.2712 30.5654 40.9113 30.6609 40.5019 30.6018C40.3804 30.5836 40.2634 30.5472 40.1555 30.4881C39.8451 30.3199 39.6696 30.0608 39.6561 29.7016C39.6426 29.347 39.7911 29.0696 40.088 28.8787C40.2994 28.7423 40.5334 28.6832 40.7808 28.665C41.0147 28.6468 41.2397 28.6832 41.4601 28.7514C41.5006 28.765 41.5411 28.7832 41.5816 28.7923C41.6221 28.806 41.6536 28.7832 41.6536 28.7378C41.6491 28.6059 41.6131 28.4786 41.5366 28.3695C41.5276 28.3559 41.5186 28.3468 41.5096 28.3331C41.2172 27.9694 40.5964 27.9785 40.3174 28.3513C40.2994 28.374 40.2859 28.4013 40.2724 28.4241C40.25 28.4604 40.2185 28.465 40.1825 28.4513C40.0655 28.4013 39.944 28.3513 39.8271 28.2968C39.7776 28.274 39.7731 28.2422 39.8001 28.1922C39.935 27.9376 40.1375 27.7603 40.4074 27.6603C40.7673 27.5284 41.1272 27.533 41.4826 27.683C41.928 27.8694 42.1349 28.2331 42.1754 28.7014C42.1799 28.765 42.1799 28.8332 42.1799 28.8969C42.1799 29.3561 42.1799 29.8107 42.1799 30.2699C42.1799 30.329 42.1799 30.3881 42.1754 30.4427C42.1754 30.4836 42.1529 30.5154 42.1124 30.5154C41.982 30.5154 41.856 30.5154 41.7255 30.5154C41.694 30.5154 41.6761 30.4881 41.6716 30.4563C41.6626 30.3699 41.6626 30.279 41.6626 30.1699ZM40.9518 29.106C40.8708 29.1197 40.7628 29.1333 40.6593 29.1606C40.5199 29.1969 40.3939 29.2742 40.3084 29.397C40.142 29.6334 40.196 29.9107 40.4479 30.0426C40.6188 30.1335 40.7988 30.1608 40.9877 30.1062C41.3431 30.0062 41.5726 29.7789 41.6536 29.4106C41.6716 29.3288 41.6536 29.2924 41.5771 29.2515C41.3881 29.1424 41.1812 29.1242 40.9518 29.106Z" fill="#000000"/>
<path d="M26.5514 30.62C25.8136 30.62 25.2422 30.129 25.1163 29.397C25.0533 29.0424 25.0938 28.7014 25.2512 28.3786C25.5571 27.733 26.2095 27.5194 26.7313 27.5876C27.5051 27.6921 27.8965 28.2695 27.9775 28.8424C28.009 29.0788 28 29.3061 27.9415 29.5334C27.7705 30.2017 27.2307 30.62 26.5514 30.62ZM25.6336 29.0924C25.6201 29.347 25.6921 29.588 25.8541 29.7926C26.0385 30.0244 26.2859 30.1335 26.5694 30.129C26.9428 30.1199 27.2757 29.8653 27.3971 29.5016C27.4826 29.2379 27.4916 28.9697 27.4016 28.7105C27.2847 28.3695 27.0507 28.1468 26.6908 28.0877C26.3129 28.0286 26.0115 28.165 25.7956 28.4832C25.6741 28.6651 25.6246 28.8651 25.6336 29.0924Z" fill="#000000"/>
<path d="M49.2654 29.1105C49.2564 29.5424 49.1259 29.9198 48.8155 30.2289C48.1497 30.8882 46.7821 30.7609 46.4267 29.5879C46.3052 29.1833 46.3277 28.7832 46.5077 28.3967C46.8226 27.7239 47.4929 27.5193 48.0238 27.592C48.811 27.7057 49.2789 28.3831 49.2654 29.1105ZM46.8901 29.1151C46.8811 29.2151 46.9036 29.3378 46.9441 29.4561C47.07 29.8425 47.3309 30.0835 47.7403 30.1198C48.1092 30.1517 48.4061 29.9971 48.5861 29.6697C48.8065 29.2696 48.802 28.8559 48.5501 28.474C48.1947 27.9239 47.3849 27.9466 47.0475 28.5104C46.9396 28.6877 46.8901 28.8832 46.8901 29.1151Z" fill="#000000"/>
<path d="M30.9017 29.0968C30.9017 29.4878 30.9017 29.8834 30.9017 30.2744C30.9017 30.3335 30.9017 30.3926 30.9017 30.4471C30.9017 30.488 30.8837 30.5199 30.8387 30.5244C30.7082 30.529 30.5823 30.5244 30.4518 30.5244C30.4203 30.5244 30.3978 30.5017 30.3978 30.4699C30.3933 30.3971 30.3933 30.3244 30.3888 30.2516C30.3888 30.2334 30.3888 30.2016 30.3618 30.2016C30.3438 30.2016 30.3213 30.2153 30.3078 30.2289C30.1324 30.4244 29.921 30.5562 29.6645 30.6017C29.4081 30.6472 29.1607 30.6153 28.9312 30.4971C28.7648 30.4153 28.6388 30.2835 28.5533 30.1198C28.4589 29.9425 28.4049 29.7561 28.4049 29.556C28.4004 28.965 28.4004 28.3785 28.4004 27.7875C28.4004 27.6784 28.4139 27.6647 28.5309 27.6647C29.0032 27.6738 28.9222 27.5874 28.9267 28.0421C28.9312 28.4331 28.9267 28.8286 28.9267 29.2196C28.9267 29.3514 28.9357 29.4833 28.9627 29.6106C29.0257 29.9152 29.2057 30.0789 29.5071 30.1152C29.84 30.1562 30.0964 30.0152 30.2539 29.7151C30.3348 29.556 30.3663 29.3878 30.3663 29.2105C30.3663 28.7877 30.3663 28.3694 30.3663 27.9466C30.3663 27.8966 30.3663 27.8466 30.3663 27.792C30.3708 27.6829 30.3798 27.6693 30.4923 27.6693C30.5913 27.6693 30.6947 27.6647 30.7937 27.6693C30.8882 27.6738 30.9017 27.6875 30.9017 27.7875C30.9017 27.8375 30.9017 27.8875 30.9017 27.9421C30.9017 28.3285 30.9017 28.7104 30.9017 29.0968Z" fill="#000000"/>
<path d="M44.9468 29.3424C44.9468 29.0151 44.9468 28.6878 44.9468 28.3604C44.9468 28.3241 44.9468 28.2877 44.9468 28.2513C44.9468 28.1968 44.9153 28.174 44.8658 28.1695C44.7713 28.1695 44.6768 28.1695 44.5869 28.1649C44.5599 28.1649 44.5284 28.1649 44.5014 28.1604C44.4609 28.1558 44.4294 28.1331 44.4294 28.0922C44.4249 27.974 44.4249 27.8603 44.4294 27.7421C44.4294 27.6921 44.4609 27.6603 44.5104 27.6603C44.6049 27.6603 44.6993 27.6603 44.7893 27.6557C44.8118 27.6557 44.8343 27.6557 44.8523 27.6557C44.9243 27.6512 44.9468 27.633 44.9468 27.5648C44.9513 27.4693 44.9468 27.3739 44.9513 27.2829C44.9513 27.2011 44.9558 27.1238 44.9782 27.0465C45.0727 26.6555 45.3651 26.3873 45.761 26.3418C45.941 26.3191 46.1209 26.3145 46.2964 26.3737C46.3684 26.3964 46.3774 26.4191 46.3549 26.4828C46.3144 26.5828 46.2739 26.6874 46.2334 26.7874C46.2154 26.8283 46.1884 26.8601 46.1344 26.8419C46.0579 26.8147 45.977 26.8147 45.9005 26.8237C45.6711 26.8465 45.5361 26.9829 45.5001 27.2102C45.4956 27.2329 45.4911 27.2557 45.4911 27.2738C45.4911 27.7148 45.4281 27.6512 45.8375 27.6557C45.9365 27.6557 46.0399 27.6557 46.1389 27.6603C46.1884 27.6603 46.2154 27.6921 46.2199 27.7421C46.2244 27.7694 46.2244 27.8012 46.2244 27.8285C46.2199 28.2104 46.2649 28.1558 45.9095 28.1604C45.7925 28.1604 45.6801 28.1604 45.5631 28.1649C45.5226 28.1649 45.4956 28.1922 45.4911 28.2331C45.4866 28.2968 45.4866 28.365 45.4866 28.4286C45.4866 29.0469 45.4866 29.6652 45.4866 30.2835C45.4866 30.5518 45.4866 30.5245 45.2572 30.5245C44.9063 30.5245 44.9558 30.57 44.9513 30.2063C44.9423 29.9244 44.9468 29.6334 44.9468 29.3424Z" fill="#000000"/>
<path d="M42.9267 29.0059C42.9267 28.765 42.9267 28.5286 42.9267 28.2876C42.9267 28.1876 42.9087 28.1739 42.8143 28.1694C42.7153 28.1648 42.6118 28.1694 42.5129 28.1648C42.4724 28.1648 42.4454 28.1376 42.4409 28.0966C42.4364 27.9784 42.4364 27.8648 42.4409 27.7466C42.4409 27.6966 42.4724 27.6693 42.5219 27.6647C42.6208 27.6647 42.7243 27.6647 42.8233 27.6602C42.9042 27.6556 42.9222 27.642 42.9222 27.5556C42.9267 27.3874 42.9222 27.2237 42.9222 27.0555C42.9222 26.9964 42.9222 26.9373 42.9222 26.8828C42.9222 26.8327 42.9447 26.7964 42.9987 26.7964C43.1292 26.7918 43.2596 26.7918 43.3856 26.7964C43.4396 26.7964 43.4621 26.8327 43.4621 26.8828C43.4621 27.0737 43.4621 27.2601 43.4621 27.4511C43.4621 27.6784 43.4531 27.6693 43.669 27.6693C43.7995 27.6693 43.9299 27.6693 44.0559 27.6693C44.1234 27.6693 44.1459 27.692 44.1459 27.7602C44.1504 27.8693 44.1459 27.9784 44.1459 28.0876C44.1459 28.1421 44.1099 28.1648 44.0604 28.1648C43.9254 28.1648 43.786 28.1648 43.651 28.1648C43.4486 28.1648 43.4576 28.1648 43.4576 28.374C43.4576 28.5422 43.4576 28.7059 43.4576 28.8741C43.4576 29.115 43.4576 29.3515 43.4576 29.5924C43.4576 29.6742 43.4576 29.7515 43.4846 29.8288C43.5296 29.9652 43.6195 30.047 43.7635 30.0652C43.8445 30.0743 43.9209 30.0698 43.9974 30.0561C44.0559 30.047 44.0919 30.0743 44.1144 30.1289C44.1369 30.188 44.1639 30.2516 44.1864 30.3107C44.2628 30.5017 44.2763 30.5153 44.0424 30.5562C43.849 30.5926 43.6555 30.579 43.4666 30.5199C43.1877 30.4335 43.0212 30.238 42.9492 29.9561C42.9222 29.8425 42.9087 29.7288 42.9087 29.6106C42.9267 29.4151 42.9267 29.2105 42.9267 29.0059Z" fill="#000000"/>
<path d="M15.5386 28.2649C15.5386 28.9559 15.5386 29.647 15.5386 30.338C15.5386 30.529 15.5386 30.529 15.3496 30.529C15.2191 30.529 15.0887 30.529 14.9627 30.529C14.9132 30.529 14.8817 30.5017 14.8817 30.4471C14.8772 30.3971 14.8772 30.3471 14.8772 30.2926C14.8772 28.9423 14.8772 27.5875 14.8772 26.2372C14.8772 25.9826 14.8682 26.0008 15.1112 26.0008C15.2281 26.0008 15.3406 26.0008 15.4576 26.0008C15.5071 26.0008 15.5386 26.0281 15.5386 26.0826C15.5386 26.1417 15.5386 26.2008 15.5386 26.2554C15.5386 26.9282 15.5386 27.5966 15.5386 28.2649Z" fill="#000000"/>
<path d="M24.1671 28.4195C24.1671 27.7967 24.1671 27.1693 24.1671 26.5464C24.1671 26.3555 24.1671 26.3555 24.356 26.3555C24.4415 26.3555 24.527 26.3555 24.6125 26.3555C24.6665 26.3555 24.689 26.3918 24.689 26.4373C24.689 26.4873 24.689 26.5373 24.689 26.5919C24.689 27.824 24.689 29.0606 24.689 30.2926C24.689 30.5472 24.7025 30.5291 24.455 30.5291C24.383 30.5291 24.3111 30.5291 24.2391 30.5291C24.1851 30.5291 24.1626 30.4972 24.1626 30.4472C24.1626 30.3881 24.1626 30.329 24.1626 30.2745C24.1671 29.6562 24.1671 29.0378 24.1671 28.4195Z" fill="#000000"/>
<path d="M38.6753 28.4422C38.6753 27.8102 38.6753 27.1783 38.6753 26.5463C38.6753 26.3554 38.6753 26.3554 38.8643 26.3508C38.9498 26.3508 39.0352 26.3508 39.1207 26.3508C39.1747 26.3508 39.1972 26.3827 39.1972 26.4327C39.1972 26.4827 39.1972 26.5327 39.1972 26.5872C39.1972 27.8193 39.1972 29.0559 39.1972 30.288C39.1972 30.5426 39.2107 30.5244 38.9678 30.5244C38.8958 30.5244 38.8238 30.5244 38.7518 30.5199C38.6978 30.5199 38.6753 30.4881 38.6753 30.438C38.6708 30.3789 38.6753 30.3198 38.6753 30.2653C38.6753 29.6606 38.6753 29.0514 38.6753 28.4422Z" fill="#000000"/>
<path d="M50.2013 28.0512C50.2958 28.0148 50.3137 27.9557 50.3542 27.9148C50.6197 27.6465 50.9391 27.5556 51.3035 27.6283C51.3305 27.6329 51.3574 27.6465 51.3844 27.6602C51.4114 27.6738 51.4249 27.7011 51.4114 27.7329C51.3799 27.8193 51.344 27.9102 51.308 27.9966C51.2855 28.0512 51.2675 28.1103 51.2315 28.1466C51.1865 28.1921 51.1235 28.1421 51.065 28.1375C50.6871 28.0966 50.2868 28.3285 50.2238 28.8832C50.2148 28.9468 50.2193 29.015 50.2193 29.0786C50.2193 29.4924 50.2193 29.9061 50.2193 30.3198C50.2193 30.3562 50.2193 30.3926 50.2193 30.4289C50.2148 30.5108 50.2013 30.5289 50.1113 30.5289C49.6119 30.5199 49.6974 30.6199 49.6929 30.1334C49.6884 29.3787 49.6929 28.6195 49.6929 27.8648C49.6929 27.6693 49.6929 27.6693 49.8819 27.6693C49.9539 27.6693 50.0258 27.6693 50.0978 27.6693C50.1833 27.6738 50.2013 27.6874 50.2058 27.7693C50.2013 27.8557 50.2013 27.942 50.2013 28.0512Z" fill="#000000"/>
<path opacity="0.35" d="M31.6978 17.4626C31.6034 17.4581 31.5134 17.449 31.4189 17.449C29.1291 17.449 26.8392 17.449 24.5539 17.449C24.266 17.449 24.3064 17.4854 24.1535 17.2171C23.5597 16.1714 22.9613 15.1258 22.3675 14.0801C21.8501 13.1754 21.3283 12.2661 20.8154 11.3568C20.73 11.2068 20.6265 11.0658 20.5725 10.8976C20.8064 10.4885 21.0404 10.0793 21.2743 9.6701C21.6342 9.0427 21.9896 8.41075 22.3495 7.77881C22.6554 7.24233 22.9613 6.7104 23.2627 6.17393C23.5822 5.61472 23.9016 5.05552 24.221 4.49176C24.2705 4.40538 24.3289 4.36447 24.4279 4.37356C24.4729 4.3781 24.5134 4.37356 24.5584 4.37356C26.8752 4.37356 29.1921 4.37356 31.5089 4.37356C31.5944 4.37356 31.6798 4.3781 31.7653 4.38265C32.0128 4.82365 32.2602 5.2692 32.5121 5.7102C33.1509 6.83316 33.7897 7.95612 34.4286 9.07453C34.739 9.62464 35.0539 10.1702 35.3643 10.7203C35.4678 10.9067 35.4678 10.9067 35.3643 11.0886C34.6625 12.3161 33.9652 13.5436 33.2634 14.7757C32.8045 15.5804 32.3457 16.3897 31.8868 17.1944C31.8283 17.2899 31.7923 17.399 31.6978 17.4626ZM28.2653 14.171C28.8681 14.1483 29.6239 13.8664 30.2538 13.2481C30.9016 12.6116 31.239 11.8387 31.248 10.9385C31.257 10.0565 30.9511 9.27912 30.3392 8.63807C29.7094 7.97885 28.9311 7.63787 28.0314 7.63332C27.1676 7.63332 26.4073 7.93338 25.7775 8.55169C25.1252 9.19273 24.7923 9.97017 24.7788 10.8794C24.7563 12.7071 26.2544 14.1756 28.2653 14.171Z" fill="#000000"/>
</svg>
