<svg width="77" height="12" viewBox="0 0 77 12" fill="none" xmlns="http://www.w3.org/2000/svg">
<path d="M27.5259 6.61979V0.267944H28.6953V6.53033C28.6953 8.14066 29.5948 8.7669 31.124 8.7669C32.6531 8.7669 33.5527 8.0512 33.5527 6.53033V0.267944H34.722V6.61979C34.722 8.85636 33.1029 9.84045 31.124 9.84045C29.0551 9.75099 27.5259 8.85636 27.5259 6.61979Z" fill="#000000"/>
<path d="M39.8494 2.68396C38.8599 2.68396 38.1403 3.13127 37.6905 3.75751V2.86288H36.6111V11.8091H37.6905V8.85687C38.2302 9.57258 38.9499 9.84097 39.8494 9.84097C41.7384 9.84097 42.8179 8.49903 42.8179 6.26246C42.7279 4.0259 41.5585 2.68396 39.8494 2.68396ZM39.6695 8.94634C38.0503 8.94634 37.5106 7.78333 37.5106 6.26246C37.5106 4.7416 38.2302 3.57859 39.6695 3.57859C40.9288 3.57859 41.6485 4.7416 41.6485 6.26246C41.6485 7.78333 41.0188 8.94634 39.6695 8.94634Z" fill="#000000"/>
<path d="M43.8971 4.92046C43.8971 2.14711 45.6062 0 48.3948 0C50.6436 0 51.9029 1.25248 52.1728 2.95228H51.0034C50.7336 1.78926 49.834 0.984094 48.3048 0.984094C46.2359 0.984094 45.0665 2.68388 45.0665 4.83099C45.0665 7.15703 46.3258 8.6779 48.3048 8.6779C50.1039 8.6779 50.9135 7.51488 51.0934 6.08348H52.2628C52.2628 6.97811 51.813 8.05166 51.0934 8.6779C50.4637 9.30414 49.4742 9.66199 48.3048 9.66199C45.6062 9.84092 43.8971 7.78328 43.8971 4.92046Z" fill="#000000"/>
<path d="M54.7816 0.267944H53.7021V9.66153H54.7816V0.267944Z" fill="#000000"/>
<path d="M59.3691 2.68396C57.3001 2.68396 56.0408 4.29429 56.0408 6.26247C56.0408 8.23065 57.3001 9.84097 59.3691 9.84097C61.438 9.84097 62.6973 8.23065 62.6973 6.26247C62.6973 4.29429 61.438 2.68396 59.3691 2.68396ZM59.3691 8.94635C57.9298 8.94635 57.1202 7.78333 57.1202 6.26247C57.1202 4.7416 57.8398 3.57859 59.3691 3.57859C60.8083 3.57859 61.5279 4.7416 61.5279 6.26247C61.6179 7.69387 60.8083 8.94635 59.3691 8.94635Z" fill="#000000"/>
<path d="M68.2744 9.66207V8.76745C67.8246 9.39369 67.195 9.841 66.2055 9.841C64.7662 9.841 63.8667 9.03584 63.8667 7.60444V2.86292H64.9461V7.51497C64.9461 8.4096 65.4858 8.94638 66.4753 8.94638C67.5548 8.94638 68.2744 8.14121 68.2744 7.06766V2.86292H69.3538V9.66207H68.2744Z" fill="#000000"/>
<path d="M75.8307 0.267944V3.84646C75.3809 3.13075 74.5713 2.68344 73.6718 2.77291C71.9627 2.77291 70.7034 4.11485 70.7034 6.35142C70.7034 8.49853 71.8728 9.92993 73.7618 9.92993C74.7513 9.92993 75.3809 9.57208 75.9206 8.94584V9.751H77.0001V0.267944H75.8307ZM73.7618 8.94584C72.4125 8.94584 71.7828 7.78283 71.7828 6.26196C71.7828 4.74109 72.4125 3.57807 73.7618 3.57807C75.201 3.57807 75.9206 4.65163 75.9206 6.26196C75.9206 7.78283 75.291 8.94584 73.7618 8.94584Z" fill="#000000"/>
<path d="M21.9486 5.90454C22.9381 5.90454 23.8376 6.7097 23.8376 7.78325C23.8376 8.76734 23.028 9.66196 21.9486 9.66196H8.54553V4.83099H9.44506V8.76733H21.9486C22.4883 8.76733 22.9381 8.32002 22.9381 7.78325C22.9381 7.24648 22.4883 6.79917 21.9486 6.79917H10.3446V5.90454H21.9486Z" fill="#000000"/>
<path d="M13.3131 0.267944H8.54555V2.23612H9.44508V1.07311H13.3131C13.8528 1.07311 14.3026 1.52042 14.3026 2.05719C14.3026 2.59397 13.8528 3.04128 13.3131 3.04128H1.88902C0.89953 3.04128 0 3.84645 0 4.92C0 5.90408 0.809577 6.79871 1.88902 6.79871H7.73597V5.90408H1.88902C1.3493 5.90408 0.899532 5.45677 0.899532 4.92C0.899532 4.38322 1.3493 3.9359 1.88902 3.9359H13.3131C14.3026 3.9359 15.2021 3.13074 15.2021 2.05719C15.2021 1.07311 14.3026 0.267944 13.3131 0.267944Z" fill="#000000"/>
</svg>
